<svg width="229" height="76" viewBox="0 0 229 76" fill="none" xmlns="http://www.w3.org/2000/svg">
<g filter="url(#filter0_d)">
<path fill-rule="evenodd" clip-rule="evenodd" d="M60.6314 65.7323H5V1H33.407C45.2507 1 54.8218 9.09288 54.8218 19.0914C54.8218 29.09 45.2507 37.0938 33.407 37.0938L60.6314 65.7323ZM31.0773 37.1933H24.4199V65.7285H31.0773V37.1933ZM41.443 19.066C41.443 26.6301 35.3111 32.7619 27.747 32.7619C20.183 32.7619 14.0511 26.6301 14.0511 19.066C14.0511 11.502 20.183 5.37009 27.747 5.37009C35.3111 5.37009 41.443 11.502 41.443 19.066Z" fill="#5D6C5A"/>
<path d="M36.9119 17.9089C36.4559 17.9089 36.3241 18.4254 35.7471 18.4254C35.5576 18.4237 35.372 18.3717 35.2093 18.2747C35.0465 18.1777 34.9125 18.0391 34.821 17.8733C34.6642 17.5171 34.9171 17.3461 34.7889 17.0184C34.6037 16.5482 34.0017 16.712 33.5529 16.2312C33.337 15.9721 33.2025 15.655 33.1664 15.3197C33.1303 14.9844 33.1941 14.646 33.3498 14.3469C33.6597 13.8233 34.1549 13.9657 34.3757 13.4671C34.5966 12.9684 34.162 12.5944 34.4113 12.0992C34.5206 11.9011 34.6862 11.7398 34.8872 11.6358C35.0882 11.5318 35.3156 11.4898 35.5405 11.5151C35.8254 11.5649 35.8468 11.7324 36.5022 12.2275C36.7622 12.4591 37.0646 12.6382 37.3927 12.7547C37.782 12.8456 38.1903 12.8094 38.5575 12.6514C38.2934 12.2063 38.002 11.778 37.6848 11.369C37.6105 11.3813 37.5347 11.3813 37.4604 11.369C36.9582 11.3156 36.9368 10.7029 36.0356 10.2719C35.8575 10.19 34.9314 9.75188 34.39 10.1366C33.9554 10.4465 34.0658 11.0769 33.7061 11.1624C33.4567 11.223 33.2002 10.9665 33.0542 10.8062C32.7479 10.4999 32.4415 9.92642 32.641 9.60584C32.8405 9.28526 33.389 9.44199 33.4674 9.19621C33.5458 8.95043 33.015 8.75096 33.0756 8.48024C33.1361 8.20953 33.5671 8.19528 33.9055 8.10623C32.4055 7.25987 30.7463 6.7335 29.0327 6.56032C29.1502 6.82035 29.4637 7.53987 29.2286 7.73578C28.9935 7.93169 28.5162 7.44726 28.1814 7.66454C27.8466 7.88183 28.0104 8.37695 27.7646 8.44462C27.5188 8.5123 27.2339 8.19172 27.0807 7.93169C26.9765 7.73382 26.9139 7.51671 26.8967 7.29373C26.8796 7.07074 26.9082 6.84661 26.981 6.63512C26.9952 6.5995 27.0095 6.56032 27.0237 6.51758C26.5461 6.54531 26.0704 6.60002 25.5989 6.68143C25.5669 7.11243 24.6051 7.16586 23.4973 7.88895C23.3691 7.97444 22.4537 8.56929 22.5605 8.82932C22.6389 9.03235 23.3406 9.01454 23.9105 8.82932C24.6229 8.59779 24.7619 8.22022 25.086 8.29858C25.5419 8.409 25.9053 9.33513 25.6132 9.76613C25.3603 10.1401 24.8224 9.85162 23.7324 10.1223C22.9959 10.2874 22.3118 10.6326 21.7413 11.1268C20.9541 11.8392 20.7938 12.6514 20.2167 12.6514C19.9389 12.6514 19.8997 12.4733 19.572 12.4768C19.1303 12.4768 18.8133 12.8045 18.3965 13.2391C17.8231 13.8233 17.5488 14.1118 17.563 14.4751C17.563 14.9488 18.0368 15.013 18.3859 15.7076C18.7349 16.4021 18.7421 17.3247 18.5034 17.4102C18.2648 17.4957 18.0475 16.7548 17.1498 16.1172C16.3983 15.6043 16.0421 15.7111 15.7215 15.4226C14.8983 18.1484 15.0256 21.0731 16.0824 23.7171C17.1391 26.3612 19.0628 28.5678 21.538 29.9754C24.0132 31.3829 26.8932 31.9079 29.7058 31.4642C32.5185 31.0205 35.097 29.6346 37.0187 27.5334C36.9468 27.4649 36.8877 27.384 36.8442 27.2948C36.684 26.8783 36.6603 26.4218 36.7765 25.9911C36.9083 25.5209 37.1541 25.3642 37.1327 24.9616C37.1113 24.5591 36.805 24.4345 36.8584 24.1388C36.9119 23.8432 37.2787 23.7826 37.6136 23.487C38.1621 23.0204 38.2227 22.2652 38.2975 21.2963C38.3935 20.6154 38.3239 19.9214 38.0944 19.2731C37.9733 19.0167 37.5495 17.9374 36.9119 17.9089ZM28.9721 21.3035C28.9152 21.8734 28.3345 21.8805 27.9855 22.5751C27.6008 23.3303 28.0068 23.8717 27.6293 24.1638C27.1983 24.495 26.5072 23.9144 26.1119 24.2706C25.8447 24.5057 26.094 24.8227 25.8661 25.3392C25.5312 26.0516 24.7975 25.8771 24.4163 26.5717C24.1527 27.0561 24.4377 27.2841 24.1706 28.196C24.0138 28.7374 23.8892 29.1719 23.6398 29.2182C23.0628 29.3322 21.5739 27.3945 21.6985 25.4425C21.7448 24.7657 21.9799 24.1459 21.5952 23.6615C21.2996 23.3053 20.9826 23.4442 20.5017 23.0631C20.2702 22.8814 20.1704 22.7069 19.6183 21.4032C18.9772 19.8894 18.9415 19.7077 19.0199 19.4619C19.2016 18.9027 19.7323 18.8528 19.7608 18.3328C19.7893 17.8127 19.3013 17.5099 19.4438 17.3105C19.5863 17.111 19.8 17.3425 20.1811 17.1715C20.5622 17.0006 20.5053 16.7548 20.7475 16.712C21.1037 16.6444 21.2355 17.1573 21.7341 17.2392C22.2328 17.3211 22.4002 16.883 22.76 16.9934C23.2658 17.1502 23.1162 18.0941 23.7111 18.3684C24.0673 18.5358 24.2739 18.2401 24.6977 18.404C25.1893 18.5928 25.086 19.0452 25.6167 19.5688C26.1135 20.038 26.7586 20.319 27.4405 20.3631C27.9997 20.3916 28.2597 20.2206 28.5696 20.4343C28.705 20.5331 28.813 20.6647 28.8834 20.8168C28.9538 20.9688 28.9844 21.1363 28.9721 21.3035Z" stroke="#FBFDF0" stroke-miterlimit="10"/>
<path d="M25.6096 9.77323C25.3567 10.1472 24.8188 9.85872 23.7288 10.1294C22.9942 10.293 22.3115 10.6356 21.7412 11.1268C20.954 11.8392 20.7937 12.6513 20.2167 12.6513C19.9389 12.6513 19.8997 12.4732 19.572 12.4768C19.1303 12.4768 18.8133 12.8045 18.3965 13.2391C17.823 13.8232 17.5487 14.1118 17.563 14.4751C17.563 14.9488 18.0367 15.0129 18.3858 15.7075C18.7349 16.4021 18.742 17.3247 18.5034 17.4102C18.2647 17.4957 18.0474 16.7548 17.1498 16.1172C16.3982 15.6042 16.042 15.7111 15.7214 15.4226C16.4001 13.1979 17.6821 11.205 19.4252 9.66502C21.1682 8.12509 23.304 7.09848 25.5953 6.69922C25.5633 7.13022 24.6015 7.18365 23.4937 7.90674C23.3655 7.99223 22.4501 8.58708 22.5569 8.84711C22.6353 9.05014 23.337 9.03233 23.9069 8.84711C24.6193 8.61558 24.7582 8.23801 25.0824 8.31637C25.5383 8.41611 25.9017 9.34223 25.6096 9.77323Z" fill="#5D6C5A" stroke="#FBFDF0" stroke-miterlimit="10"/>
<path d="M29.2215 7.74251C29.0006 7.9313 28.5091 7.45399 28.1743 7.67127C27.8394 7.88855 28.0033 8.38367 27.7575 8.45135C27.5117 8.51903 27.2268 8.19845 27.0736 7.93842C26.9694 7.74055 26.9067 7.52344 26.8896 7.30045C26.8724 7.07747 26.9011 6.85333 26.9739 6.64185C26.9881 6.60623 27.0024 6.56705 27.0166 6.5243C27.2588 6.5243 27.4975 6.50293 27.729 6.50293C28.1584 6.5027 28.5876 6.5241 29.0149 6.56705C29.1502 6.82707 29.4637 7.5466 29.2215 7.74251Z" fill="#5D6C5A" stroke="#FBFDF0" stroke-miterlimit="10"/>
<path d="M37.6853 11.3825C37.611 11.3948 37.5352 11.3948 37.4609 11.3825C36.9586 11.3291 36.9373 10.7164 36.0361 10.2854C35.858 10.2035 34.9319 9.76536 34.3904 10.1501C33.9559 10.46 34.0663 11.0904 33.7065 11.1759C33.4572 11.2365 33.2007 10.98 33.0547 10.8197C32.7483 10.5134 32.442 9.9399 32.6415 9.61932C32.841 9.29874 33.3895 9.45547 33.4679 9.20969C33.5462 8.96391 33.0155 8.75019 33.076 8.47948C33.1366 8.20877 33.5676 8.19452 33.906 8.10547C35.3716 8.93495 36.6566 10.0491 37.6853 11.3825Z" fill="#5D6C5A" stroke="#FBFDF0" stroke-miterlimit="10"/>
<path d="M40.3101 19.0664C40.3148 22.204 39.14 25.2286 37.0188 27.5405C36.9469 27.4719 36.8878 27.3911 36.8443 27.3018C36.6841 26.8854 36.6604 26.4289 36.7766 25.9981C36.9084 25.5279 37.1542 25.3712 37.1328 24.9687C37.1114 24.5662 36.8051 24.4415 36.8585 24.1459C36.912 23.8502 37.2788 23.7897 37.6137 23.494C38.1622 23.0274 38.2228 22.2722 38.2976 21.3034C38.3936 20.6225 38.324 19.9284 38.0945 19.2802C37.9877 19.0166 37.5638 17.9373 36.9262 17.9088C36.4703 17.9088 36.3385 18.4253 35.7614 18.4253C35.572 18.4236 35.3864 18.3716 35.2236 18.2746C35.0609 18.1776 34.9269 18.039 34.8353 17.8732C34.6786 17.517 34.9315 17.346 34.8032 17.0183C34.618 16.5481 34.016 16.712 33.5672 16.2311C33.3513 15.972 33.2169 15.6549 33.1807 15.3196C33.1446 14.9844 33.2084 14.6459 33.3642 14.3468C33.6598 13.8232 34.155 13.9656 34.3758 13.467C34.5966 12.9683 34.1621 12.5943 34.4114 12.0992C34.5207 11.901 34.6863 11.7397 34.8873 11.6357C35.0883 11.5317 35.3157 11.4897 35.5406 11.515C35.8255 11.5649 35.8469 11.7323 36.5023 12.2274C36.7623 12.459 37.0647 12.6381 37.3928 12.7546C37.7821 12.8455 38.1904 12.8093 38.5576 12.6513C39.7118 14.5915 40.3176 16.8088 40.3101 19.0664Z" fill="#5D6C5A" stroke="#FBFDF0" stroke-miterlimit="10"/>
<path d="M28.9722 21.3026C28.9152 21.8726 28.3346 21.8797 27.9856 22.5743C27.6009 23.3294 28.0069 23.8708 27.6294 24.1629C27.1984 24.4942 26.5073 23.9136 26.1119 24.2698C25.8448 24.5049 26.0941 24.8219 25.8662 25.3384C25.5313 26.0508 24.7976 25.8763 24.4164 26.5708C24.1528 27.0553 24.4378 27.2832 24.1707 28.1951C24.0139 28.7365 23.8893 29.1711 23.6399 29.2174C23.0629 29.3314 21.574 27.3937 21.6986 25.4417C21.7449 24.7649 21.98 24.1451 21.5953 23.6607C21.2997 23.3045 20.9827 23.4434 20.5018 23.0623C20.2703 22.8806 20.1705 22.7061 19.6184 21.4024C18.9772 19.8885 18.9416 19.7069 19.02 19.4611C19.2017 18.9018 19.7324 18.852 19.7609 18.3319C19.7894 17.8119 19.3014 17.5091 19.4439 17.3096C19.5864 17.1102 19.8001 17.3417 20.1812 17.1707C20.5623 16.9997 20.5053 16.754 20.7476 16.7112C21.1038 16.6435 21.2356 17.1565 21.7342 17.2384C22.2329 17.3203 22.4003 16.8822 22.7601 16.9926C23.2659 17.1493 23.1163 18.0933 23.7112 18.3675C24.0674 18.535 24.274 18.2393 24.6978 18.4032C25.1894 18.592 25.0861 19.0443 25.6168 19.5679C26.1136 20.0372 26.7587 20.3181 27.4406 20.3623C27.9998 20.3908 28.2598 20.2198 28.5697 20.4335C28.7051 20.5323 28.8131 20.6639 28.8835 20.816C28.9539 20.968 28.9845 21.1355 28.9722 21.3026Z" fill="#5D6C5A" stroke="#FBFDF0" stroke-miterlimit="10"/>
</g>
<g filter="url(#filter1_d)">
<path d="M71.776 38V20.96H79.312C80.096 20.96 80.816 21.128 81.472 21.464C82.144 21.784 82.72 22.216 83.2 22.76C83.68 23.288 84.056 23.896 84.328 24.584C84.6 25.256 84.736 25.936 84.736 26.624C84.736 27.728 84.456 28.736 83.896 29.648C83.352 30.544 82.608 31.192 81.664 31.592L85.552 38H81.832L78.352 32.288H75.088V38H71.776ZM75.088 29.384H79.24C79.544 29.384 79.824 29.312 80.08 29.168C80.352 29.024 80.584 28.832 80.776 28.592C80.968 28.336 81.12 28.04 81.232 27.704C81.344 27.368 81.4 27.008 81.4 26.624C81.4 26.224 81.336 25.856 81.208 25.52C81.08 25.184 80.904 24.896 80.68 24.656C80.472 24.4 80.224 24.208 79.936 24.08C79.664 23.936 79.384 23.864 79.096 23.864H75.088V29.384ZM92.9054 38.24C91.8974 38.24 90.9854 38.072 90.1694 37.736C89.3534 37.384 88.6574 36.912 88.0814 36.32C87.5054 35.728 87.0574 35.04 86.7374 34.256C86.4334 33.472 86.2814 32.648 86.2814 31.784C86.2814 30.888 86.4334 30.048 86.7374 29.264C87.0414 28.464 87.4814 27.768 88.0574 27.176C88.6334 26.568 89.3294 26.088 90.1454 25.736C90.9774 25.384 91.9054 25.208 92.9294 25.208C93.9534 25.208 94.8654 25.384 95.6654 25.736C96.4814 26.088 97.1694 26.56 97.7294 27.152C98.3054 27.744 98.7374 28.432 99.0254 29.216C99.3294 30 99.4814 30.816 99.4814 31.664C99.4814 31.872 99.4734 32.072 99.4574 32.264C99.4574 32.456 99.4414 32.616 99.4094 32.744H89.6894C89.7374 33.24 89.8574 33.68 90.0494 34.064C90.2414 34.448 90.4894 34.776 90.7934 35.048C91.0974 35.32 91.4414 35.528 91.8254 35.672C92.2094 35.816 92.6094 35.888 93.0254 35.888C93.6654 35.888 94.2654 35.736 94.8254 35.432C95.4014 35.112 95.7934 34.696 96.0014 34.184L98.7614 34.952C98.2974 35.912 97.5534 36.704 96.5294 37.328C95.5214 37.936 94.3134 38.24 92.9054 38.24ZM96.1694 30.656C96.0894 29.712 95.7374 28.96 95.1134 28.4C94.5054 27.824 93.7614 27.536 92.8814 27.536C92.4494 27.536 92.0414 27.616 91.6574 27.776C91.2894 27.92 90.9614 28.128 90.6734 28.4C90.3854 28.672 90.1454 29 89.9534 29.384C89.7774 29.768 89.6734 30.192 89.6414 30.656H96.1694ZM100.649 31.712C100.649 30.832 100.801 30 101.105 29.216C101.409 28.432 101.849 27.744 102.425 27.152C103.001 26.56 103.697 26.088 104.513 25.736C105.329 25.384 106.249 25.208 107.273 25.208C108.649 25.208 109.817 25.504 110.777 26.096C111.753 26.688 112.481 27.464 112.961 28.424L109.817 29.384C109.545 28.92 109.185 28.568 108.737 28.328C108.289 28.072 107.793 27.944 107.249 27.944C106.785 27.944 106.353 28.04 105.953 28.232C105.553 28.408 105.201 28.664 104.897 29C104.609 29.32 104.377 29.712 104.201 30.176C104.041 30.64 103.961 31.152 103.961 31.712C103.961 32.272 104.049 32.784 104.225 33.248C104.401 33.712 104.633 34.112 104.921 34.448C105.225 34.784 105.577 35.048 105.977 35.24C106.377 35.416 106.801 35.504 107.249 35.504C107.825 35.504 108.353 35.36 108.833 35.072C109.329 34.784 109.673 34.432 109.865 34.016L113.009 34.976C112.577 35.936 111.865 36.72 110.873 37.328C109.881 37.936 108.689 38.24 107.297 38.24C106.273 38.24 105.353 38.064 104.537 37.712C103.721 37.36 103.025 36.888 102.449 36.296C101.873 35.688 101.425 34.992 101.105 34.208C100.801 33.408 100.649 32.576 100.649 31.712ZM120.678 38.24C119.654 38.24 118.734 38.064 117.918 37.712C117.102 37.36 116.406 36.888 115.83 36.296C115.27 35.688 114.838 34.992 114.534 34.208C114.23 33.424 114.078 32.6 114.078 31.736C114.078 30.856 114.23 30.024 114.534 29.24C114.838 28.456 115.27 27.768 115.83 27.176C116.406 26.568 117.102 26.088 117.918 25.736C118.734 25.384 119.654 25.208 120.678 25.208C121.702 25.208 122.614 25.384 123.414 25.736C124.23 26.088 124.918 26.568 125.478 27.176C126.054 27.768 126.494 28.456 126.798 29.24C127.102 30.024 127.254 30.856 127.254 31.736C127.254 32.6 127.102 33.424 126.798 34.208C126.494 34.992 126.062 35.688 125.502 36.296C124.942 36.888 124.254 37.36 123.438 37.712C122.622 38.064 121.702 38.24 120.678 38.24ZM117.39 31.736C117.39 32.296 117.47 32.808 117.63 33.272C117.806 33.72 118.038 34.112 118.326 34.448C118.63 34.784 118.982 35.048 119.382 35.24C119.782 35.416 120.214 35.504 120.678 35.504C121.142 35.504 121.574 35.416 121.974 35.24C122.374 35.048 122.718 34.784 123.006 34.448C123.31 34.112 123.542 33.712 123.702 33.248C123.878 32.784 123.966 32.272 123.966 31.712C123.966 31.168 123.878 30.664 123.702 30.2C123.542 29.736 123.31 29.336 123.006 29C122.718 28.664 122.374 28.408 121.974 28.232C121.574 28.04 121.142 27.944 120.678 27.944C120.214 27.944 119.782 28.04 119.382 28.232C118.982 28.424 118.63 28.688 118.326 29.024C118.038 29.36 117.806 29.76 117.63 30.224C117.47 30.688 117.39 31.192 117.39 31.736ZM132.364 38L127.732 25.424H131.044L134.236 35.384L137.452 25.424H140.476L135.844 38H132.364ZM147.562 38.24C146.554 38.24 145.642 38.072 144.826 37.736C144.01 37.384 143.314 36.912 142.738 36.32C142.162 35.728 141.714 35.04 141.394 34.256C141.09 33.472 140.938 32.648 140.938 31.784C140.938 30.888 141.09 30.048 141.394 29.264C141.698 28.464 142.138 27.768 142.714 27.176C143.29 26.568 143.986 26.088 144.802 25.736C145.634 25.384 146.562 25.208 147.586 25.208C148.61 25.208 149.522 25.384 150.322 25.736C151.138 26.088 151.826 26.56 152.386 27.152C152.962 27.744 153.394 28.432 153.682 29.216C153.986 30 154.138 30.816 154.138 31.664C154.138 31.872 154.13 32.072 154.114 32.264C154.114 32.456 154.098 32.616 154.066 32.744H144.346C144.394 33.24 144.514 33.68 144.706 34.064C144.898 34.448 145.146 34.776 145.45 35.048C145.754 35.32 146.098 35.528 146.482 35.672C146.866 35.816 147.266 35.888 147.682 35.888C148.322 35.888 148.922 35.736 149.482 35.432C150.058 35.112 150.45 34.696 150.658 34.184L153.418 34.952C152.954 35.912 152.21 36.704 151.186 37.328C150.178 37.936 148.97 38.24 147.562 38.24ZM150.826 30.656C150.746 29.712 150.394 28.96 149.77 28.4C149.162 27.824 148.418 27.536 147.538 27.536C147.106 27.536 146.698 27.616 146.314 27.776C145.946 27.92 145.618 28.128 145.33 28.4C145.042 28.672 144.802 29 144.61 29.384C144.434 29.768 144.33 30.192 144.298 30.656H150.826ZM163.585 28.208C162.609 28.224 161.737 28.416 160.969 28.784C160.201 29.136 159.649 29.672 159.313 30.392V38H156.097V25.424H159.049V28.112C159.273 27.68 159.537 27.296 159.841 26.96C160.145 26.608 160.473 26.304 160.825 26.048C161.177 25.792 161.529 25.6 161.881 25.472C162.249 25.328 162.601 25.256 162.937 25.256C163.113 25.256 163.241 25.256 163.321 25.256C163.417 25.256 163.505 25.264 163.585 25.28V28.208ZM165.642 40.448C165.914 40.528 166.178 40.584 166.434 40.616C166.69 40.664 166.906 40.688 167.082 40.688C167.29 40.688 167.482 40.648 167.658 40.568C167.834 40.488 167.994 40.344 168.138 40.136C168.282 39.944 168.426 39.672 168.57 39.32C168.714 38.968 168.866 38.528 169.026 38L164.058 25.424H167.37L170.778 35.216L173.802 25.424H176.826L171.546 40.496C171.242 41.376 170.722 42.096 169.986 42.656C169.25 43.216 168.338 43.496 167.25 43.496C166.994 43.496 166.73 43.472 166.458 43.424C166.202 43.392 165.93 43.328 165.642 43.232V40.448ZM71.776 66V48.96H75.088V66H71.776ZM90.0192 66H86.8032V58.944C86.8032 57.936 86.6272 57.2 86.2752 56.736C85.9232 56.272 85.4352 56.04 84.8112 56.04C84.4912 56.04 84.1632 56.104 83.8272 56.232C83.4912 56.36 83.1712 56.544 82.8672 56.784C82.5792 57.008 82.3152 57.28 82.0752 57.6C81.8352 57.92 81.6592 58.272 81.5472 58.656V66H78.3312V53.424H81.2352V55.752C81.6992 54.952 82.3712 54.328 83.2512 53.88C84.1312 53.432 85.1232 53.208 86.2272 53.208C87.0112 53.208 87.6512 53.352 88.1472 53.64C88.6432 53.928 89.0272 54.304 89.2992 54.768C89.5712 55.232 89.7552 55.76 89.8512 56.352C89.9632 56.944 90.0192 57.544 90.0192 58.152V66ZM100.234 65.352C99.8024 65.544 99.2744 65.736 98.6504 65.928C98.0264 66.12 97.3704 66.216 96.6824 66.216C96.2344 66.216 95.8104 66.16 95.4104 66.048C95.0264 65.936 94.6824 65.76 94.3784 65.52C94.0904 65.264 93.8584 64.944 93.6824 64.56C93.5064 64.16 93.4184 63.68 93.4184 63.12V55.896H91.7624V53.424H93.4184V49.344H96.6344V53.424H99.2744V55.896H96.6344V62.04C96.6344 62.488 96.7464 62.808 96.9704 63C97.2104 63.176 97.4984 63.264 97.8344 63.264C98.1704 63.264 98.4984 63.208 98.8184 63.096C99.1384 62.984 99.3944 62.888 99.5864 62.808L100.234 65.352ZM107.437 66.24C106.429 66.24 105.517 66.072 104.701 65.736C103.885 65.384 103.189 64.912 102.613 64.32C102.037 63.728 101.589 63.04 101.269 62.256C100.965 61.472 100.813 60.648 100.813 59.784C100.813 58.888 100.965 58.048 101.269 57.264C101.573 56.464 102.013 55.768 102.589 55.176C103.165 54.568 103.861 54.088 104.677 53.736C105.509 53.384 106.437 53.208 107.461 53.208C108.485 53.208 109.397 53.384 110.197 53.736C111.013 54.088 111.701 54.56 112.261 55.152C112.837 55.744 113.269 56.432 113.557 57.216C113.861 58 114.013 58.816 114.013 59.664C114.013 59.872 114.005 60.072 113.989 60.264C113.989 60.456 113.973 60.616 113.941 60.744H104.221C104.269 61.24 104.389 61.68 104.581 62.064C104.773 62.448 105.021 62.776 105.325 63.048C105.629 63.32 105.973 63.528 106.357 63.672C106.741 63.816 107.141 63.888 107.557 63.888C108.197 63.888 108.797 63.736 109.357 63.432C109.933 63.112 110.325 62.696 110.533 62.184L113.293 62.952C112.829 63.912 112.085 64.704 111.061 65.328C110.053 65.936 108.845 66.24 107.437 66.24ZM110.701 58.656C110.621 57.712 110.269 56.96 109.645 56.4C109.037 55.824 108.293 55.536 107.413 55.536C106.981 55.536 106.573 55.616 106.189 55.776C105.821 55.92 105.493 56.128 105.205 56.4C104.917 56.672 104.677 57 104.485 57.384C104.309 57.768 104.205 58.192 104.173 58.656H110.701ZM123.46 56.208C122.484 56.224 121.612 56.416 120.844 56.784C120.076 57.136 119.524 57.672 119.188 58.392V66H115.972V53.424H118.924V56.112C119.148 55.68 119.412 55.296 119.716 54.96C120.02 54.608 120.348 54.304 120.7 54.048C121.052 53.792 121.404 53.6 121.756 53.472C122.124 53.328 122.476 53.256 122.812 53.256C122.988 53.256 123.116 53.256 123.196 53.256C123.292 53.256 123.38 53.264 123.46 53.28V56.208ZM136.941 66H133.725V58.944C133.725 57.936 133.549 57.2 133.197 56.736C132.845 56.272 132.357 56.04 131.733 56.04C131.413 56.04 131.085 56.104 130.749 56.232C130.413 56.36 130.093 56.544 129.789 56.784C129.501 57.008 129.237 57.28 128.997 57.6C128.757 57.92 128.581 58.272 128.469 58.656V66H125.253V53.424H128.157V55.752C128.621 54.952 129.293 54.328 130.173 53.88C131.053 53.432 132.045 53.208 133.149 53.208C133.933 53.208 134.573 53.352 135.069 53.64C135.565 53.928 135.949 54.304 136.221 54.768C136.493 55.232 136.677 55.76 136.773 56.352C136.885 56.944 136.941 57.544 136.941 58.152V66ZM143.169 66.24C142.561 66.24 141.993 66.144 141.465 65.952C140.937 65.744 140.481 65.464 140.097 65.112C139.713 64.744 139.409 64.32 139.185 63.84C138.977 63.36 138.873 62.832 138.873 62.256C138.873 61.664 139.001 61.12 139.257 60.624C139.529 60.112 139.897 59.68 140.361 59.328C140.841 58.976 141.409 58.704 142.065 58.512C142.721 58.304 143.441 58.2 144.225 58.2C144.785 58.2 145.329 58.248 145.857 58.344C146.401 58.44 146.881 58.576 147.297 58.752V58.032C147.297 57.2 147.057 56.56 146.577 56.112C146.113 55.664 145.417 55.44 144.489 55.44C143.817 55.44 143.161 55.56 142.521 55.8C141.881 56.04 141.225 56.392 140.553 56.856L139.569 54.816C141.185 53.744 142.929 53.208 144.801 53.208C146.609 53.208 148.009 53.656 149.001 54.552C150.009 55.432 150.513 56.712 150.513 58.392V62.304C150.513 62.64 150.569 62.88 150.681 63.024C150.809 63.168 151.009 63.248 151.281 63.264V66C150.737 66.112 150.265 66.168 149.865 66.168C149.257 66.168 148.785 66.032 148.449 65.76C148.129 65.488 147.929 65.128 147.849 64.68L147.777 63.984C147.217 64.72 146.537 65.28 145.737 65.664C144.937 66.048 144.081 66.24 143.169 66.24ZM144.081 63.888C144.625 63.888 145.137 63.792 145.617 63.6C146.113 63.408 146.497 63.152 146.769 62.832C147.121 62.56 147.297 62.256 147.297 61.92V60.48C146.913 60.336 146.497 60.224 146.049 60.144C145.601 60.048 145.169 60 144.753 60C143.921 60 143.241 60.192 142.713 60.576C142.185 60.944 141.921 61.416 141.921 61.992C141.921 62.536 142.129 62.992 142.545 63.36C142.961 63.712 143.473 63.888 144.081 63.888ZM160.961 65.352C160.529 65.544 160.001 65.736 159.377 65.928C158.753 66.12 158.097 66.216 157.409 66.216C156.961 66.216 156.537 66.16 156.137 66.048C155.753 65.936 155.409 65.76 155.105 65.52C154.817 65.264 154.585 64.944 154.409 64.56C154.233 64.16 154.145 63.68 154.145 63.12V55.896H152.489V53.424H154.145V49.344H157.361V53.424H160.001V55.896H157.361V62.04C157.361 62.488 157.473 62.808 157.697 63C157.937 63.176 158.225 63.264 158.561 63.264C158.897 63.264 159.225 63.208 159.545 63.096C159.865 62.984 160.121 62.888 160.313 62.808L160.961 65.352ZM162.636 66V53.424H165.852V66H162.636ZM162.636 51.672V48.48H165.852V51.672H162.636ZM174.561 66.24C173.537 66.24 172.617 66.064 171.801 65.712C170.985 65.36 170.289 64.888 169.713 64.296C169.153 63.688 168.721 62.992 168.417 62.208C168.113 61.424 167.961 60.6 167.961 59.736C167.961 58.856 168.113 58.024 168.417 57.24C168.721 56.456 169.153 55.768 169.713 55.176C170.289 54.568 170.985 54.088 171.801 53.736C172.617 53.384 173.537 53.208 174.561 53.208C175.585 53.208 176.497 53.384 177.297 53.736C178.113 54.088 178.801 54.568 179.361 55.176C179.937 55.768 180.377 56.456 180.681 57.24C180.985 58.024 181.137 58.856 181.137 59.736C181.137 60.6 180.985 61.424 180.681 62.208C180.377 62.992 179.945 63.688 179.385 64.296C178.825 64.888 178.137 65.36 177.321 65.712C176.505 66.064 175.585 66.24 174.561 66.24ZM171.273 59.736C171.273 60.296 171.353 60.808 171.513 61.272C171.689 61.72 171.921 62.112 172.209 62.448C172.513 62.784 172.865 63.048 173.265 63.24C173.665 63.416 174.097 63.504 174.561 63.504C175.025 63.504 175.457 63.416 175.857 63.24C176.257 63.048 176.601 62.784 176.889 62.448C177.193 62.112 177.425 61.712 177.585 61.248C177.761 60.784 177.849 60.272 177.849 59.712C177.849 59.168 177.761 58.664 177.585 58.2C177.425 57.736 177.193 57.336 176.889 57C176.601 56.664 176.257 56.408 175.857 56.232C175.457 56.04 175.025 55.944 174.561 55.944C174.097 55.944 173.665 56.04 173.265 56.232C172.865 56.424 172.513 56.688 172.209 57.024C171.921 57.36 171.689 57.76 171.513 58.224C171.353 58.688 171.273 59.192 171.273 59.736ZM194.996 66H191.78V58.944C191.78 57.936 191.604 57.2 191.252 56.736C190.9 56.272 190.412 56.04 189.788 56.04C189.468 56.04 189.14 56.104 188.804 56.232C188.468 56.36 188.148 56.544 187.844 56.784C187.556 57.008 187.292 57.28 187.052 57.6C186.812 57.92 186.636 58.272 186.524 58.656V66H183.308V53.424H186.212V55.752C186.676 54.952 187.348 54.328 188.228 53.88C189.108 53.432 190.1 53.208 191.204 53.208C191.988 53.208 192.628 53.352 193.124 53.64C193.62 53.928 194.004 54.304 194.276 54.768C194.548 55.232 194.732 55.76 194.828 56.352C194.94 56.944 194.996 57.544 194.996 58.152V66ZM201.224 66.24C200.616 66.24 200.048 66.144 199.52 65.952C198.992 65.744 198.536 65.464 198.152 65.112C197.768 64.744 197.464 64.32 197.24 63.84C197.032 63.36 196.928 62.832 196.928 62.256C196.928 61.664 197.056 61.12 197.312 60.624C197.584 60.112 197.952 59.68 198.416 59.328C198.896 58.976 199.464 58.704 200.12 58.512C200.776 58.304 201.496 58.2 202.28 58.2C202.84 58.2 203.384 58.248 203.912 58.344C204.456 58.44 204.936 58.576 205.352 58.752V58.032C205.352 57.2 205.112 56.56 204.632 56.112C204.168 55.664 203.472 55.44 202.544 55.44C201.872 55.44 201.216 55.56 200.576 55.8C199.936 56.04 199.28 56.392 198.608 56.856L197.624 54.816C199.24 53.744 200.984 53.208 202.856 53.208C204.664 53.208 206.064 53.656 207.056 54.552C208.064 55.432 208.568 56.712 208.568 58.392V62.304C208.568 62.64 208.624 62.88 208.736 63.024C208.864 63.168 209.064 63.248 209.336 63.264V66C208.792 66.112 208.32 66.168 207.92 66.168C207.312 66.168 206.84 66.032 206.504 65.76C206.184 65.488 205.984 65.128 205.904 64.68L205.832 63.984C205.272 64.72 204.592 65.28 203.792 65.664C202.992 66.048 202.136 66.24 201.224 66.24ZM202.136 63.888C202.68 63.888 203.192 63.792 203.672 63.6C204.168 63.408 204.552 63.152 204.824 62.832C205.176 62.56 205.352 62.256 205.352 61.92V60.48C204.968 60.336 204.552 60.224 204.104 60.144C203.656 60.048 203.224 60 202.808 60C201.976 60 201.296 60.192 200.768 60.576C200.24 60.944 199.976 61.416 199.976 61.992C199.976 62.536 200.184 62.992 200.6 63.36C201.016 63.712 201.528 63.888 202.136 63.888ZM211.549 48.48H214.765V61.968C214.765 62.432 214.877 62.792 215.101 63.048C215.325 63.304 215.645 63.432 216.061 63.432C216.253 63.432 216.461 63.4 216.685 63.336C216.925 63.272 217.149 63.192 217.357 63.096L217.789 65.544C217.357 65.752 216.853 65.912 216.277 66.024C215.701 66.136 215.181 66.192 214.717 66.192C213.709 66.192 212.925 65.928 212.365 65.4C211.821 64.856 211.549 64.088 211.549 63.096V48.48Z" fill="#5D6C5A"/>
</g>
<defs>
<filter id="filter0_d" x="0" y="0" width="65.6314" height="74.7323" filterUnits="userSpaceOnUse" color-interpolation-filters="sRGB">
<feFlood flood-opacity="0" result="BackgroundImageFix"/>
<feColorMatrix in="SourceAlpha" type="matrix" values="0 0 0 0 0 0 0 0 0 0 0 0 0 0 0 0 0 0 127 0"/>
<feOffset dy="4"/>
<feGaussianBlur stdDeviation="2.5"/>
<feColorMatrix type="matrix" values="0 0 0 0 0 0 0 0 0 0 0 0 0 0 0 0 0 0 0.36 0"/>
<feBlend mode="normal" in2="BackgroundImageFix" result="effect1_dropShadow"/>
<feBlend mode="normal" in="SourceGraphic" in2="effect1_dropShadow" result="shape"/>
</filter>
<filter id="filter1_d" x="66.7759" y="19.96" width="156.013" height="55.28" filterUnits="userSpaceOnUse" color-interpolation-filters="sRGB">
<feFlood flood-opacity="0" result="BackgroundImageFix"/>
<feColorMatrix in="SourceAlpha" type="matrix" values="0 0 0 0 0 0 0 0 0 0 0 0 0 0 0 0 0 0 127 0"/>
<feOffset dy="4"/>
<feGaussianBlur stdDeviation="2.5"/>
<feColorMatrix type="matrix" values="0 0 0 0 0 0 0 0 0 0 0 0 0 0 0 0 0 0 0.36 0"/>
<feBlend mode="normal" in2="BackgroundImageFix" result="effect1_dropShadow"/>
<feBlend mode="normal" in="SourceGraphic" in2="effect1_dropShadow" result="shape"/>
</filter>
</defs>
</svg>
