<svg width="66" height="75" viewBox="0 0 66 75" fill="none" xmlns="http://www.w3.org/2000/svg">
<g filter="url(#filter0_d)">
<path fill-rule="evenodd" clip-rule="evenodd" d="M60.6314 65.7323H5V1H33.407C45.2507 1 54.8218 9.09288 54.8218 19.0914C54.8218 29.09 45.2507 37.0938 33.407 37.0938L60.6314 65.7323ZM31.0773 37.1933H24.4199V65.7285H31.0773V37.1933ZM41.443 19.066C41.443 26.6301 35.3111 32.7619 27.747 32.7619C20.183 32.7619 14.0511 26.6301 14.0511 19.066C14.0511 11.502 20.183 5.37009 27.747 5.37009C35.3111 5.37009 41.443 11.502 41.443 19.066Z" fill="#5D6C5A"/>
<path d="M36.9119 17.9089C36.4559 17.9089 36.3241 18.4254 35.7471 18.4254C35.5576 18.4237 35.372 18.3717 35.2093 18.2747C35.0465 18.1777 34.9125 18.0391 34.821 17.8733C34.6642 17.5171 34.9171 17.3461 34.7889 17.0184C34.6037 16.5482 34.0017 16.712 33.5529 16.2312C33.337 15.9721 33.2025 15.655 33.1664 15.3197C33.1303 14.9844 33.1941 14.646 33.3498 14.3469C33.6597 13.8233 34.1549 13.9657 34.3757 13.4671C34.5966 12.9684 34.162 12.5944 34.4113 12.0992C34.5206 11.9011 34.6862 11.7398 34.8872 11.6358C35.0882 11.5318 35.3156 11.4898 35.5405 11.5151C35.8254 11.5649 35.8468 11.7324 36.5022 12.2275C36.7622 12.4591 37.0646 12.6382 37.3927 12.7547C37.782 12.8456 38.1903 12.8094 38.5575 12.6514C38.2934 12.2063 38.002 11.778 37.6848 11.369C37.6105 11.3813 37.5347 11.3813 37.4604 11.369C36.9582 11.3156 36.9368 10.7029 36.0356 10.2719C35.8575 10.19 34.9314 9.75188 34.39 10.1366C33.9554 10.4465 34.0658 11.0769 33.7061 11.1624C33.4567 11.223 33.2002 10.9665 33.0542 10.8062C32.7479 10.4999 32.4415 9.92642 32.641 9.60584C32.8405 9.28526 33.389 9.44199 33.4674 9.19621C33.5458 8.95043 33.015 8.75096 33.0756 8.48024C33.1361 8.20953 33.5671 8.19528 33.9055 8.10623C32.4055 7.25987 30.7463 6.7335 29.0327 6.56032C29.1502 6.82035 29.4637 7.53987 29.2286 7.73578C28.9935 7.93169 28.5162 7.44726 28.1814 7.66454C27.8466 7.88183 28.0104 8.37695 27.7646 8.44462C27.5188 8.5123 27.2339 8.19172 27.0807 7.93169C26.9765 7.73382 26.9139 7.51671 26.8967 7.29373C26.8796 7.07074 26.9082 6.84661 26.981 6.63512C26.9952 6.5995 27.0095 6.56032 27.0237 6.51758C26.5461 6.54531 26.0704 6.60002 25.5989 6.68143C25.5669 7.11243 24.6051 7.16586 23.4973 7.88895C23.3691 7.97444 22.4537 8.56929 22.5605 8.82932C22.6389 9.03235 23.3406 9.01454 23.9105 8.82932C24.6229 8.59779 24.7619 8.22022 25.086 8.29858C25.5419 8.409 25.9053 9.33513 25.6132 9.76613C25.3603 10.1401 24.8224 9.85162 23.7324 10.1223C22.9959 10.2874 22.3118 10.6326 21.7413 11.1268C20.9541 11.8392 20.7938 12.6514 20.2167 12.6514C19.9389 12.6514 19.8997 12.4733 19.572 12.4768C19.1303 12.4768 18.8133 12.8045 18.3965 13.2391C17.8231 13.8233 17.5488 14.1118 17.563 14.4751C17.563 14.9488 18.0368 15.013 18.3859 15.7076C18.7349 16.4021 18.7421 17.3247 18.5034 17.4102C18.2648 17.4957 18.0475 16.7548 17.1498 16.1172C16.3983 15.6043 16.0421 15.7111 15.7215 15.4226C14.8983 18.1484 15.0256 21.0731 16.0824 23.7171C17.1391 26.3612 19.0628 28.5678 21.538 29.9754C24.0132 31.3829 26.8932 31.9079 29.7058 31.4642C32.5185 31.0205 35.097 29.6346 37.0187 27.5334C36.9468 27.4649 36.8877 27.384 36.8442 27.2948C36.684 26.8783 36.6603 26.4218 36.7765 25.9911C36.9083 25.5209 37.1541 25.3642 37.1327 24.9616C37.1113 24.5591 36.805 24.4345 36.8584 24.1388C36.9119 23.8432 37.2787 23.7826 37.6136 23.487C38.1621 23.0204 38.2227 22.2652 38.2975 21.2963C38.3935 20.6154 38.3239 19.9214 38.0944 19.2731C37.9733 19.0167 37.5495 17.9374 36.9119 17.9089ZM28.9721 21.3035C28.9152 21.8734 28.3345 21.8805 27.9855 22.5751C27.6008 23.3303 28.0068 23.8717 27.6293 24.1638C27.1983 24.495 26.5072 23.9144 26.1119 24.2706C25.8447 24.5057 26.094 24.8227 25.8661 25.3392C25.5312 26.0516 24.7975 25.8771 24.4163 26.5717C24.1527 27.0561 24.4377 27.2841 24.1706 28.196C24.0138 28.7374 23.8892 29.1719 23.6398 29.2182C23.0628 29.3322 21.5739 27.3945 21.6985 25.4425C21.7448 24.7657 21.9799 24.1459 21.5952 23.6615C21.2996 23.3053 20.9826 23.4442 20.5017 23.0631C20.2702 22.8814 20.1704 22.7069 19.6183 21.4032C18.9772 19.8894 18.9415 19.7077 19.0199 19.4619C19.2016 18.9027 19.7323 18.8528 19.7608 18.3328C19.7893 17.8127 19.3013 17.5099 19.4438 17.3105C19.5863 17.111 19.8 17.3425 20.1811 17.1715C20.5622 17.0006 20.5053 16.7548 20.7475 16.712C21.1037 16.6444 21.2355 17.1573 21.7341 17.2392C22.2328 17.3211 22.4002 16.883 22.76 16.9934C23.2658 17.1502 23.1162 18.0941 23.7111 18.3684C24.0673 18.5358 24.2739 18.2401 24.6977 18.404C25.1893 18.5928 25.086 19.0452 25.6167 19.5688C26.1135 20.038 26.7586 20.319 27.4405 20.3631C27.9997 20.3916 28.2597 20.2206 28.5696 20.4343C28.705 20.5331 28.813 20.6647 28.8834 20.8168C28.9538 20.9688 28.9844 21.1363 28.9721 21.3035Z" stroke="#FBFDF0" stroke-miterlimit="10"/>
<path d="M25.6096 9.77323C25.3567 10.1472 24.8188 9.85872 23.7288 10.1294C22.9942 10.293 22.3115 10.6356 21.7412 11.1268C20.954 11.8392 20.7937 12.6513 20.2167 12.6513C19.9389 12.6513 19.8997 12.4732 19.572 12.4768C19.1303 12.4768 18.8133 12.8045 18.3965 13.2391C17.823 13.8232 17.5487 14.1118 17.563 14.4751C17.563 14.9488 18.0367 15.0129 18.3858 15.7075C18.7349 16.4021 18.742 17.3247 18.5034 17.4102C18.2647 17.4957 18.0474 16.7548 17.1498 16.1172C16.3982 15.6042 16.042 15.7111 15.7214 15.4226C16.4001 13.1979 17.6821 11.205 19.4252 9.66502C21.1682 8.12509 23.304 7.09848 25.5953 6.69922C25.5633 7.13022 24.6015 7.18365 23.4937 7.90674C23.3655 7.99223 22.4501 8.58708 22.5569 8.84711C22.6353 9.05014 23.337 9.03233 23.9069 8.84711C24.6193 8.61558 24.7582 8.23801 25.0824 8.31637C25.5383 8.41611 25.9017 9.34223 25.6096 9.77323Z" fill="#5D6C5A" stroke="#FBFDF0" stroke-miterlimit="10"/>
<path d="M29.2215 7.74251C29.0006 7.9313 28.5091 7.45399 28.1743 7.67127C27.8394 7.88855 28.0033 8.38367 27.7575 8.45135C27.5117 8.51903 27.2268 8.19845 27.0736 7.93842C26.9694 7.74055 26.9067 7.52344 26.8896 7.30045C26.8724 7.07747 26.9011 6.85333 26.9739 6.64185C26.9881 6.60623 27.0024 6.56705 27.0166 6.5243C27.2588 6.5243 27.4975 6.50293 27.729 6.50293C28.1584 6.5027 28.5876 6.5241 29.0149 6.56705C29.1502 6.82707 29.4637 7.5466 29.2215 7.74251Z" fill="#5D6C5A" stroke="#FBFDF0" stroke-miterlimit="10"/>
<path d="M37.6853 11.3825C37.611 11.3948 37.5352 11.3948 37.4609 11.3825C36.9586 11.3291 36.9373 10.7164 36.0361 10.2854C35.858 10.2035 34.9319 9.76536 34.3904 10.1501C33.9559 10.46 34.0663 11.0904 33.7065 11.1759C33.4572 11.2365 33.2007 10.98 33.0547 10.8197C32.7483 10.5134 32.442 9.9399 32.6415 9.61932C32.841 9.29874 33.3895 9.45547 33.4679 9.20969C33.5462 8.96391 33.0155 8.75019 33.076 8.47948C33.1366 8.20877 33.5676 8.19452 33.906 8.10547C35.3716 8.93495 36.6566 10.0491 37.6853 11.3825Z" fill="#5D6C5A" stroke="#FBFDF0" stroke-miterlimit="10"/>
<path d="M40.3101 19.0664C40.3148 22.204 39.14 25.2286 37.0188 27.5405C36.9469 27.4719 36.8878 27.3911 36.8443 27.3018C36.6841 26.8854 36.6604 26.4289 36.7766 25.9981C36.9084 25.5279 37.1542 25.3712 37.1328 24.9687C37.1114 24.5662 36.8051 24.4415 36.8585 24.1459C36.912 23.8502 37.2788 23.7897 37.6137 23.494C38.1622 23.0274 38.2228 22.2722 38.2976 21.3034C38.3936 20.6225 38.324 19.9284 38.0945 19.2802C37.9877 19.0166 37.5638 17.9373 36.9262 17.9088C36.4703 17.9088 36.3385 18.4253 35.7614 18.4253C35.572 18.4236 35.3864 18.3716 35.2236 18.2746C35.0609 18.1776 34.9269 18.039 34.8353 17.8732C34.6786 17.517 34.9315 17.346 34.8032 17.0183C34.618 16.5481 34.016 16.712 33.5672 16.2311C33.3513 15.972 33.2169 15.6549 33.1807 15.3196C33.1446 14.9844 33.2084 14.6459 33.3642 14.3468C33.6598 13.8232 34.155 13.9656 34.3758 13.467C34.5966 12.9683 34.1621 12.5943 34.4114 12.0992C34.5207 11.901 34.6863 11.7397 34.8873 11.6357C35.0883 11.5317 35.3157 11.4897 35.5406 11.515C35.8255 11.5649 35.8469 11.7323 36.5023 12.2274C36.7623 12.459 37.0647 12.6381 37.3928 12.7546C37.7821 12.8455 38.1904 12.8093 38.5576 12.6513C39.7118 14.5915 40.3176 16.8088 40.3101 19.0664Z" fill="#5D6C5A" stroke="#FBFDF0" stroke-miterlimit="10"/>
<path d="M28.9722 21.3026C28.9152 21.8726 28.3346 21.8797 27.9856 22.5743C27.6009 23.3294 28.0069 23.8708 27.6294 24.1629C27.1984 24.4942 26.5073 23.9136 26.1119 24.2698C25.8448 24.5049 26.0941 24.8219 25.8662 25.3384C25.5313 26.0508 24.7976 25.8763 24.4164 26.5708C24.1528 27.0553 24.4378 27.2832 24.1707 28.1951C24.0139 28.7365 23.8893 29.1711 23.6399 29.2174C23.0629 29.3314 21.574 27.3937 21.6986 25.4417C21.7449 24.7649 21.98 24.1451 21.5953 23.6607C21.2997 23.3045 20.9827 23.4434 20.5018 23.0623C20.2703 22.8806 20.1705 22.7061 19.6184 21.4024C18.9772 19.8885 18.9416 19.7069 19.02 19.4611C19.2017 18.9018 19.7324 18.852 19.7609 18.3319C19.7894 17.8119 19.3014 17.5091 19.4439 17.3096C19.5864 17.1102 19.8001 17.3417 20.1812 17.1707C20.5623 16.9997 20.5053 16.754 20.7476 16.7112C21.1038 16.6435 21.2356 17.1565 21.7342 17.2384C22.2329 17.3203 22.4003 16.8822 22.7601 16.9926C23.2659 17.1493 23.1163 18.0933 23.7112 18.3675C24.0674 18.535 24.274 18.2393 24.6978 18.4032C25.1894 18.592 25.0861 19.0443 25.6168 19.5679C26.1136 20.0372 26.7587 20.3181 27.4406 20.3623C27.9998 20.3908 28.2598 20.2198 28.5697 20.4335C28.7051 20.5323 28.8131 20.6639 28.8835 20.816C28.9539 20.968 28.9845 21.1355 28.9722 21.3026Z" fill="#5D6C5A" stroke="#FBFDF0" stroke-miterlimit="10"/>
</g>
<defs>
<filter id="filter0_d" x="0" y="0" width="65.6314" height="74.7323" filterUnits="userSpaceOnUse" color-interpolation-filters="sRGB">
<feFlood flood-opacity="0" result="BackgroundImageFix"/>
<feColorMatrix in="SourceAlpha" type="matrix" values="0 0 0 0 0 0 0 0 0 0 0 0 0 0 0 0 0 0 127 0"/>
<feOffset dy="4"/>
<feGaussianBlur stdDeviation="2.5"/>
<feColorMatrix type="matrix" values="0 0 0 0 0 0 0 0 0 0 0 0 0 0 0 0 0 0 0.36 0"/>
<feBlend mode="normal" in2="BackgroundImageFix" result="effect1_dropShadow"/>
<feBlend mode="normal" in="SourceGraphic" in2="effect1_dropShadow" result="shape"/>
</filter>
</defs>
</svg>
